<svg id="logo" width="434" height="80" viewBox="0 0 434 80" fill="none" xmlns="http://www.w3.org/2000/svg">
<mask id="path-1-outside-1" maskUnits="userSpaceOnUse" x="0.347992" y="0.880005" width="434" height="80" fill="black">
<rect fill="white" x="0.347992" y="0.880005" width="434" height="80"/>
<path d="M32.296 74.48L17.608 74C14.792 74 10.408 74.16 4.45599 74.48C4.26399 73.264 4.32799 72.144 4.64799 71.12C7.33599 70.736 9.89599 70.096 12.328 69.2V11.6L4.93599 9.68001C4.74399 8.46401 4.90399 7.34401 5.41599 6.32C11.176 6.64 15.08 6.8 17.128 6.8L29.992 6.704C45.8 6.57601 53.768 11.728 53.896 22.16C53.896 26.32 52.456 29.84 49.576 32.72C46.76 35.536 43.24 37.296 39.016 38V38.192C51.688 39.6 58.024 45.456 58.024 55.76C58.024 59.216 57.32 62.224 55.912 64.784C54.504 67.28 52.552 69.232 50.056 70.64C47.56 71.984 44.84 72.976 41.896 73.616C39.016 74.192 35.816 74.48 32.296 74.48ZM22.408 69.68L31.144 70.16C37.032 70.16 41.224 68.912 43.72 66.416C46.216 63.856 47.4 60.272 47.272 55.664C47.272 50.416 45.896 46.704 43.144 44.528C40.456 42.288 35.816 41.168 29.224 41.168H22.408V69.68ZM22.408 36.368H27.976C33.608 36.368 37.608 35.248 39.976 33.008C42.408 30.704 43.624 27.216 43.624 22.544C43.624 18.512 42.344 15.632 39.784 13.904C37.288 12.112 33.096 11.216 27.208 11.216C26.312 11.216 24.712 11.28 22.408 11.408V36.368Z"/>
<path d="M82.783 68.72H105.823L108.415 56.912C109.759 56.656 110.911 56.752 111.871 57.2C112.511 61.872 112.831 67.472 112.831 74H77.983C75.423 74 71.167 74.16 65.215 74.48C65.023 73.264 65.087 72.144 65.407 71.12C69.119 70.416 71.551 69.776 72.703 69.2V11.6L65.311 9.68001C65.119 8.46401 65.279 7.34401 65.791 6.32C71.551 6.64 75.455 6.8 77.503 6.8C80.383 6.8 84.767 6.64 90.655 6.32C90.847 7.536 90.783 8.656 90.463 9.68001C87.071 10 84.511 10.64 82.783 11.6V68.72Z"/>
<path d="M117.443 40.304C117.443 29.68 120.419 21.136 126.371 14.672C132.323 8.144 139.939 4.88 149.219 4.88C158.691 4.88 166.403 8.17601 172.355 14.768C178.307 21.296 181.283 29.808 181.283 40.304C181.283 50.992 178.339 59.6 172.451 66.128C166.563 72.656 158.819 75.92 149.219 75.92C139.555 75.92 131.843 72.656 126.083 66.128C120.323 59.6 117.443 50.992 117.443 40.304ZM170.243 39.632C170.243 34.448 169.443 29.616 167.843 25.136C166.307 20.592 163.875 16.816 160.547 13.808C157.219 10.8 153.347 9.29601 148.931 9.29601C145.347 9.29601 142.211 10.192 139.523 11.984C136.835 13.712 134.691 16.112 133.091 19.184C131.555 22.192 130.403 25.552 129.635 29.264C128.867 32.912 128.483 36.88 128.483 41.168C128.483 49.808 130.435 57.04 134.339 62.864C138.307 68.624 143.619 71.504 150.275 71.504C156.803 71.504 161.763 68.496 165.155 62.48C168.547 56.4 170.243 48.784 170.243 39.632Z"/>
<path d="M242.332 63.536C243.676 63.92 244.412 64.976 244.54 66.704C238.268 72.848 230.972 75.92 222.652 75.92C218.3 75.92 214.14 75.216 210.172 73.808C206.268 72.336 202.78 70.192 199.708 67.376C196.7 64.56 194.268 60.848 192.412 56.24C190.62 51.568 189.724 46.288 189.724 40.4C189.724 34.576 190.716 29.36 192.7 24.752C194.748 20.08 197.436 16.304 200.764 13.424C204.156 10.544 207.772 8.4 211.612 6.99201C215.516 5.58401 219.516 4.88 223.612 4.88C232.572 4.88 239.676 6.32001 244.924 9.20001C245.18 13.744 244.188 18.992 241.948 24.944C240.348 25.2 238.94 25.04 237.724 24.464L236.668 12.08C233.212 10.608 229.084 9.904 224.284 9.968C217.628 9.968 212.06 12.912 207.58 18.8C203.1 24.624 200.86 31.824 200.86 40.4C200.86 49.68 202.812 57.072 206.716 62.576C210.684 68.08 216.348 70.832 223.708 70.832C230.364 70.832 236.572 68.4 242.332 63.536Z"/>
<path d="M286.827 42.32H268.97V69.68H296.81L298.827 56.912C300.107 56.656 301.226 56.752 302.186 57.2C303.082 60.976 303.466 66.576 303.339 74H264.171C261.611 74 257.354 74.16 251.402 74.48C251.21 73.264 251.274 72.144 251.594 71.12C254.922 70.48 257.354 69.84 258.89 69.2V11.6L251.498 9.68001C251.306 8.46401 251.466 7.34401 251.978 6.32C257.738 6.64 261.642 6.8 263.69 6.8H300.651C300.779 13.328 300.427 18.928 299.595 23.6C298.635 23.984 297.482 24.08 296.138 23.888L293.643 11.12H268.97V37.04H286.827L288.651 28.592C290.123 28.144 291.403 28.304 292.491 29.072C292.235 31.568 292.107 34.992 292.107 39.344C292.107 44.144 292.235 47.92 292.491 50.672C291.339 51.12 290.059 51.184 288.651 50.864L286.827 42.32Z"/>
<path d="M328.97 43.76V69.2L336.362 71.12C336.554 72.336 336.395 73.456 335.883 74.48C330.123 74.16 326.219 74 324.171 74C321.355 74 316.97 74.16 311.018 74.48C310.826 73.264 310.891 72.144 311.211 71.12C314.027 70.8 316.587 70.16 318.891 69.2V11.6L311.499 9.68001C311.307 8.46401 311.467 7.34401 311.979 6.32C317.355 6.704 321.899 6.864 325.611 6.8L334.634 6.224C342.698 5.776 349.194 7.216 354.122 10.544C359.05 13.808 361.514 18.576 361.514 24.848C361.514 33.168 357.13 38.8 348.362 41.744V42.128C349.066 42.576 349.77 43.6 350.474 45.2C355.786 57.168 358.986 64.016 360.074 65.744C361.674 68.624 363.434 70.288 365.354 70.736C366.122 70.928 367.019 71.024 368.043 71.024L369.194 70.928C369.706 71.696 369.899 72.72 369.771 74C369.003 74.896 366.891 75.376 363.435 75.44C359.211 75.44 355.722 73.776 352.97 70.448C351.882 69.168 350.826 67.44 349.802 65.264C348.778 63.024 347.403 59.856 345.674 55.76C344.01 51.664 342.187 47.632 340.203 43.664C338.091 43.856 335.947 43.952 333.771 43.952C332.619 43.952 331.018 43.888 328.97 43.76ZM352.107 25.424C352.107 20.752 350.571 17.136 347.499 14.576C344.491 11.952 340.651 10.64 335.979 10.64C333.931 10.64 331.594 10.992 328.97 11.696V39.344C330.826 39.792 332.746 40.016 334.73 40.016C340.234 40.016 344.491 38.736 347.499 36.176C350.571 33.552 352.107 29.968 352.107 25.424Z"/>
<path d="M403.022 43.184V69.2L411.375 71.12C411.567 72.336 411.407 73.456 410.895 74.48C405.135 74.16 400.911 74 398.223 74C395.407 74 391.022 74.16 385.07 74.48C384.814 73.264 384.879 72.144 385.263 71.12C388.847 70.672 391.407 70.032 392.943 69.2V45.104L372.302 11.6L364.91 9.68001C364.718 8.46401 364.879 7.34401 365.391 6.32C371.151 6.64 375.342 6.8 377.966 6.8C380.974 6.8 385.454 6.64 391.406 6.32C391.598 7.536 391.535 8.656 391.215 9.68001C387.567 10.128 384.975 10.768 383.439 11.6L399.279 38.864H399.663L415.599 11.6L408.207 9.68001C408.015 8.46401 408.174 7.34401 408.686 6.32C413.166 6.64 416.783 6.8 419.535 6.8C421.711 6.8 425.135 6.64 429.807 6.32C429.999 7.536 429.935 8.656 429.615 9.68001C425.646 10.192 422.926 10.832 421.454 11.6L403.022 43.184Z"/>
</mask>
<path d="M32.296 74.48L17.608 74C14.792 74 10.408 74.16 4.45599 74.48C4.26399 73.264 4.32799 72.144 4.64799 71.12C7.33599 70.736 9.89599 70.096 12.328 69.2V11.6L4.93599 9.68001C4.74399 8.46401 4.90399 7.34401 5.41599 6.32C11.176 6.64 15.08 6.8 17.128 6.8L29.992 6.704C45.8 6.57601 53.768 11.728 53.896 22.16C53.896 26.32 52.456 29.84 49.576 32.72C46.76 35.536 43.24 37.296 39.016 38V38.192C51.688 39.6 58.024 45.456 58.024 55.76C58.024 59.216 57.32 62.224 55.912 64.784C54.504 67.28 52.552 69.232 50.056 70.64C47.56 71.984 44.84 72.976 41.896 73.616C39.016 74.192 35.816 74.48 32.296 74.48ZM22.408 69.68L31.144 70.16C37.032 70.16 41.224 68.912 43.72 66.416C46.216 63.856 47.4 60.272 47.272 55.664C47.272 50.416 45.896 46.704 43.144 44.528C40.456 42.288 35.816 41.168 29.224 41.168H22.408V69.68ZM22.408 36.368H27.976C33.608 36.368 37.608 35.248 39.976 33.008C42.408 30.704 43.624 27.216 43.624 22.544C43.624 18.512 42.344 15.632 39.784 13.904C37.288 12.112 33.096 11.216 27.208 11.216C26.312 11.216 24.712 11.28 22.408 11.408V36.368Z" stroke="black" stroke-width="8" mask="url(#path-1-outside-1)"/>
<path d="M82.783 68.72H105.823L108.415 56.912C109.759 56.656 110.911 56.752 111.871 57.2C112.511 61.872 112.831 67.472 112.831 74H77.983C75.423 74 71.167 74.16 65.215 74.48C65.023 73.264 65.087 72.144 65.407 71.12C69.119 70.416 71.551 69.776 72.703 69.2V11.6L65.311 9.68001C65.119 8.46401 65.279 7.34401 65.791 6.32C71.551 6.64 75.455 6.8 77.503 6.8C80.383 6.8 84.767 6.64 90.655 6.32C90.847 7.536 90.783 8.656 90.463 9.68001C87.071 10 84.511 10.64 82.783 11.6V68.72Z" stroke="black" stroke-width="8" mask="url(#path-1-outside-1)"/>
<path d="M117.443 40.304C117.443 29.68 120.419 21.136 126.371 14.672C132.323 8.144 139.939 4.88 149.219 4.88C158.691 4.88 166.403 8.17601 172.355 14.768C178.307 21.296 181.283 29.808 181.283 40.304C181.283 50.992 178.339 59.6 172.451 66.128C166.563 72.656 158.819 75.92 149.219 75.92C139.555 75.92 131.843 72.656 126.083 66.128C120.323 59.6 117.443 50.992 117.443 40.304ZM170.243 39.632C170.243 34.448 169.443 29.616 167.843 25.136C166.307 20.592 163.875 16.816 160.547 13.808C157.219 10.8 153.347 9.29601 148.931 9.29601C145.347 9.29601 142.211 10.192 139.523 11.984C136.835 13.712 134.691 16.112 133.091 19.184C131.555 22.192 130.403 25.552 129.635 29.264C128.867 32.912 128.483 36.88 128.483 41.168C128.483 49.808 130.435 57.04 134.339 62.864C138.307 68.624 143.619 71.504 150.275 71.504C156.803 71.504 161.763 68.496 165.155 62.48C168.547 56.4 170.243 48.784 170.243 39.632Z" stroke="black" stroke-width="8" mask="url(#path-1-outside-1)"/>
<path d="M242.332 63.536C243.676 63.92 244.412 64.976 244.54 66.704C238.268 72.848 230.972 75.92 222.652 75.92C218.3 75.92 214.14 75.216 210.172 73.808C206.268 72.336 202.78 70.192 199.708 67.376C196.7 64.56 194.268 60.848 192.412 56.24C190.62 51.568 189.724 46.288 189.724 40.4C189.724 34.576 190.716 29.36 192.7 24.752C194.748 20.08 197.436 16.304 200.764 13.424C204.156 10.544 207.772 8.4 211.612 6.99201C215.516 5.58401 219.516 4.88 223.612 4.88C232.572 4.88 239.676 6.32001 244.924 9.20001C245.18 13.744 244.188 18.992 241.948 24.944C240.348 25.2 238.94 25.04 237.724 24.464L236.668 12.08C233.212 10.608 229.084 9.904 224.284 9.968C217.628 9.968 212.06 12.912 207.58 18.8C203.1 24.624 200.86 31.824 200.86 40.4C200.86 49.68 202.812 57.072 206.716 62.576C210.684 68.08 216.348 70.832 223.708 70.832C230.364 70.832 236.572 68.4 242.332 63.536Z" stroke="black" stroke-width="8" mask="url(#path-1-outside-1)"/>
<path d="M286.827 42.32H268.97V69.68H296.81L298.827 56.912C300.107 56.656 301.226 56.752 302.186 57.2C303.082 60.976 303.466 66.576 303.339 74H264.171C261.611 74 257.354 74.16 251.402 74.48C251.21 73.264 251.274 72.144 251.594 71.12C254.922 70.48 257.354 69.84 258.89 69.2V11.6L251.498 9.68001C251.306 8.46401 251.466 7.34401 251.978 6.32C257.738 6.64 261.642 6.8 263.69 6.8H300.651C300.779 13.328 300.427 18.928 299.595 23.6C298.635 23.984 297.482 24.08 296.138 23.888L293.643 11.12H268.97V37.04H286.827L288.651 28.592C290.123 28.144 291.403 28.304 292.491 29.072C292.235 31.568 292.107 34.992 292.107 39.344C292.107 44.144 292.235 47.92 292.491 50.672C291.339 51.12 290.059 51.184 288.651 50.864L286.827 42.32Z" stroke="black" stroke-width="8" mask="url(#path-1-outside-1)"/>
<path d="M328.97 43.76V69.2L336.362 71.12C336.554 72.336 336.395 73.456 335.883 74.48C330.123 74.16 326.219 74 324.171 74C321.355 74 316.97 74.16 311.018 74.48C310.826 73.264 310.891 72.144 311.211 71.12C314.027 70.8 316.587 70.16 318.891 69.2V11.6L311.499 9.68001C311.307 8.46401 311.467 7.34401 311.979 6.32C317.355 6.704 321.899 6.864 325.611 6.8L334.634 6.224C342.698 5.776 349.194 7.216 354.122 10.544C359.05 13.808 361.514 18.576 361.514 24.848C361.514 33.168 357.13 38.8 348.362 41.744V42.128C349.066 42.576 349.77 43.6 350.474 45.2C355.786 57.168 358.986 64.016 360.074 65.744C361.674 68.624 363.434 70.288 365.354 70.736C366.122 70.928 367.019 71.024 368.043 71.024L369.194 70.928C369.706 71.696 369.899 72.72 369.771 74C369.003 74.896 366.891 75.376 363.435 75.44C359.211 75.44 355.722 73.776 352.97 70.448C351.882 69.168 350.826 67.44 349.802 65.264C348.778 63.024 347.403 59.856 345.674 55.76C344.01 51.664 342.187 47.632 340.203 43.664C338.091 43.856 335.947 43.952 333.771 43.952C332.619 43.952 331.018 43.888 328.97 43.76ZM352.107 25.424C352.107 20.752 350.571 17.136 347.499 14.576C344.491 11.952 340.651 10.64 335.979 10.64C333.931 10.64 331.594 10.992 328.97 11.696V39.344C330.826 39.792 332.746 40.016 334.73 40.016C340.234 40.016 344.491 38.736 347.499 36.176C350.571 33.552 352.107 29.968 352.107 25.424Z" stroke="black" stroke-width="8" mask="url(#path-1-outside-1)"/>
<path d="M403.022 43.184V69.2L411.375 71.12C411.567 72.336 411.407 73.456 410.895 74.48C405.135 74.16 400.911 74 398.223 74C395.407 74 391.022 74.16 385.07 74.48C384.814 73.264 384.879 72.144 385.263 71.12C388.847 70.672 391.407 70.032 392.943 69.2V45.104L372.302 11.6L364.91 9.68001C364.718 8.46401 364.879 7.34401 365.391 6.32C371.151 6.64 375.342 6.8 377.966 6.8C380.974 6.8 385.454 6.64 391.406 6.32C391.598 7.536 391.535 8.656 391.215 9.68001C387.567 10.128 384.975 10.768 383.439 11.6L399.279 38.864H399.663L415.599 11.6L408.207 9.68001C408.015 8.46401 408.174 7.34401 408.686 6.32C413.166 6.64 416.783 6.8 419.535 6.8C421.711 6.8 425.135 6.64 429.807 6.32C429.999 7.536 429.935 8.656 429.615 9.68001C425.646 10.192 422.926 10.832 421.454 11.6L403.022 43.184Z" stroke="black" stroke-width="8" mask="url(#path-1-outside-1)"/>
</svg>
